<?xml version="1.0" encoding="utf-8"?>
<!-- Generator: Adobe Illustrator 24.1.1, SVG Export Plug-In . SVG Version: 6.00 Build 0)  -->
<svg version="1.1" id="Layer_1" xmlns="http://www.w3.org/2000/svg" xmlns:xlink="http://www.w3.org/1999/xlink" x="0px" y="0px"
	 viewBox="0 0 512 512" style="enable-background:new 0 0 512 512;" xml:space="preserve">
<style type="text/css">
	.st0{fill-rule:evenodd;clip-rule:evenodd;}
</style>
<g>
	<path class="st0" d="M256,512c141.4,0,256-114.6,256-256S397.4,0,256,0S0,114.6,0,256S114.6,512,256,512z M285.8,210.8l-73.3,9.2
		l-2.6,12.2l14.4,2.6c9.4,2.3,11.3,5.6,9.2,15l-23.6,111c-6.2,28.7,3.4,42.2,25.9,42.2c17.4,0,37.7-8.1,46.9-19.1l2.8-13.3
		c-6.4,5.6-15.8,7.9-22,7.9c-8.8,0-12-6.2-9.7-17.1L285.8,210.8z M256,176c17.7,0,32-14.3,32-32s-14.3-32-32-32s-32,14.3-32,32
		S238.3,176,256,176z"/>
</g>
</svg>
