<svg width="72" height="50" viewBox="0 0 72 50" fill="none" xmlns="http://www.w3.org/2000/svg">
<path d="M19.3219 48.6668L1.32187 30.4843C0.435935 29.6035 -1.2431e-06 28.4387 -1.18659e-06 27.146C-1.13009e-06 25.8534 0.439452 24.8192 1.31836 23.9314L19.3184 5.87667C21.0762 4.10102 23.9238 4.10103 25.6816 5.87667C27.4395 7.65231 27.4395 10.5289 25.6816 12.3045L15.3563 22.7282L60.75 22.7282C61.9889 22.7282 63 21.7055 63 20.4554L63 4.54565C63 2.0356 65.0123 -3.0544e-07 67.5 -1.96701e-07C69.9877 -8.79623e-08 72 2.0356 72 4.54565L72 20.4554C72 26.7199 66.9544 31.8195 60.75 31.8195L15.3563 31.8195L25.6753 42.2419C27.4331 44.0175 27.4331 46.894 25.6753 48.6697C23.9175 50.4453 21.0797 50.4425 19.3219 48.6668Z" fill="#E6E6E6" fill-opacity="0.63"/>
</svg>
