<svg width="18" height="18" viewBox="0 0 18 18" fill="none" xmlns="http://www.w3.org/2000/svg">
<path d="M8.40368 7.9052e-05C7.58384 -0.00241245 6.73072 0.0893383 5.85172 0.294195C3.85493 0.759593 1.55923 2.92788 0.54952 5.11289C0.044742 6.20527 -0.136749 7.28247 0.107927 8.12709C0.31236 8.83294 0.792709 9.41805 1.73747 9.79917C1.48556 9.35046 1.30187 8.86921 1.20529 8.39772L1.92225 8.24823C2.05137 8.87842 2.39611 9.58842 2.85203 10.1218C3.49445 10.2673 4.18839 10.3827 4.91221 10.4728C4.66393 9.88246 4.65774 9.36051 4.66628 8.91682L5.39784 8.93165C5.38715 9.48508 5.37525 9.92019 5.78815 10.5692C6.49896 10.6354 7.22935 10.6776 7.96205 10.699C7.94647 10.1367 7.98554 9.5923 8.03546 9.05773L8.76338 9.12694C8.71346 9.66182 8.67803 10.1867 8.69487 10.7138C9.49326 10.7219 10.2864 10.7043 11.0511 10.6656C11.1504 10.0862 11.2153 9.55884 11.2811 9.02317L12.0078 9.1146C11.9483 9.59827 11.888 10.0883 11.801 10.6211C12.5461 10.5681 13.2535 10.4941 13.9016 10.4011C14.12 9.83219 14.286 9.26888 14.3787 8.71296L15.0993 8.83532C15.0191 9.31602 14.8907 9.79241 14.7285 10.2652C15.0985 10.1967 15.442 10.1218 15.7501 10.0402C16.1136 9.44368 16.3868 8.85715 16.5343 8.28655L17.2426 8.47314C17.1426 8.86031 16.9968 9.24147 16.8156 9.61876C17.5886 9.16024 17.9353 8.47954 17.9926 7.65375C18.069 6.55262 17.5521 5.16454 16.5343 3.88185C14.8804 1.79748 11.9564 0.0106779 8.40368 0V7.9052e-05ZM6.17223 11.3564C6.1074 11.6633 6.04923 11.9759 5.99974 12.2895C5.82279 13.4112 5.75444 14.5476 5.84558 15.4694C5.93679 16.3912 6.20476 17.0677 6.55639 17.338C7.18187 17.8189 8.00821 18.0229 8.80249 17.998C9.59673 17.9731 10.3489 17.711 10.7929 17.3454C11.1481 17.053 11.4376 16.1353 11.4658 14.9467C11.4911 13.8788 11.341 12.6131 11.0547 11.4232C9.47744 11.5043 7.79078 11.4892 6.17215 11.3565L6.17223 11.3564Z" fill="white"/>
</svg>
