<svg width="21" height="21" viewBox="0 0 21 21" fill="none" xmlns="http://www.w3.org/2000/svg">
<path d="M20.6038 9.56469L11.4351 0.396122C10.9073 -0.132041 10.0509 -0.132041 9.52239 0.396122L7.61865 2.30025L10.0337 4.7154C10.595 4.52587 11.2387 4.65308 11.6859 5.10043C12.1359 5.55057 12.2619 6.19977 12.0676 6.76308L14.3954 9.09065C14.9587 8.89648 15.6081 9.022 16.0581 9.47257C16.6865 10.1009 16.6865 11.1194 16.0581 11.7483C15.4291 12.3771 14.4108 12.3771 13.7816 11.7483C13.3089 11.2751 13.192 10.5805 13.4317 9.99804L11.2605 7.82706V13.5399C11.4136 13.6158 11.5583 13.7169 11.6859 13.8442C12.3144 14.4726 12.3144 15.491 11.6859 16.1204C11.0574 16.7486 10.0384 16.7486 9.41036 16.1204C8.78188 15.491 8.78188 14.4726 9.41036 13.8442C9.5657 13.689 9.74558 13.5716 9.93751 13.4931V7.72735C9.74558 7.64877 9.56614 7.53238 9.41036 7.37614C8.93436 6.9003 8.81982 6.20155 9.06399 5.61689L6.68308 3.23559L0.396036 9.52221C-0.132012 10.0508 -0.132012 10.9072 0.396036 11.4354L9.56524 20.604C10.0931 21.132 10.9492 21.132 11.4779 20.604L20.6038 11.4779C21.1321 10.9496 21.1321 10.0928 20.6038 9.56469" fill="white"/>
</svg>
